<?xml version="1.0" encoding="iso-8859-1"?>
<!-- Generator: Adobe Illustrator 18.0.0, SVG Export Plug-In . SVG Version: 6.00 Build 0)  -->
<!DOCTYPE svg PUBLIC "-//W3C//DTD SVG 1.1//EN" "http://www.w3.org/Graphics/SVG/1.1/DTD/svg11.dtd">
<svg version="1.1" id="Capa_1" xmlns="http://www.w3.org/2000/svg" xmlns:xlink="http://www.w3.org/1999/xlink" x="0px" y="0px"
	 viewBox="0 0 473.067 473.067" style="enable-background:new 0 0 473.067 473.067;" xml:space="preserve">
<g>
	<path d="M393.773,285.134c-10.749,0-19.466,8.718-19.466,19.449v101.714c0,5.539-4.497,10.036-10.034,10.036H109.538
		c-5.537,0-10.035-4.497-10.035-10.036V304.956c0-10.95-8.872-19.822-19.838-19.822c-10.949,0-19.82,8.872-19.82,19.822v124.142
		c0,24.289,19.683,43.97,43.955,43.97h265.467c24.273,0,43.956-19.681,43.956-43.97V304.583
		C413.223,293.852,404.507,285.134,393.773,285.134z"/>
	<path d="M145.056,391.518h186.088c11.276,0,20.428-9.152,20.428-20.428V67.996c0-11.277-9.151-20.428-20.428-20.428h-7.258V23.822
		C323.886,10.67,313.213,0,300.063,0c-13.152,0-23.823,10.67-23.823,23.822v23.746H145.056c-11.275,0-20.427,9.15-20.427,20.428
		V371.09C124.628,382.365,133.78,391.518,145.056,391.518z M230.578,350.4c0,4.931-4.003,8.934-8.934,8.934h-29.779
		c-4.931,0-8.934-4.003-8.934-8.934v-29.779c0-4.932,4.003-8.934,8.934-8.934h29.779c4.932,0,8.934,4.002,8.934,8.934V350.4z
		 M230.578,286.871c0,4.932-4.003,8.934-8.934,8.934h-29.779c-4.931,0-8.934-4.002-8.934-8.934v-29.779
		c0-4.932,4.003-8.934,8.934-8.934h29.779c4.932,0,8.934,4.002,8.934,8.934V286.871z M294.106,350.4
		c0,4.931-4.002,8.934-8.934,8.934h-29.779c-4.932,0-8.934-4.003-8.934-8.934v-29.779c0-4.932,4.002-8.934,8.934-8.934h29.779
		c4.932,0,8.934,4.002,8.934,8.934V350.4z M294.106,286.871c0,4.932-4.002,8.934-8.934,8.934h-29.779
		c-4.932,0-8.934-4.002-8.934-8.934v-29.779c0-4.932,4.002-8.934,8.934-8.934h29.779c4.932,0,8.934,4.002,8.934,8.934V286.871z
		 M164.227,108.91c0-7.181,5.832-13.013,13.028-13.013h121.692c7.195,0,13.027,5.832,13.027,13.013v95.852
		c0,7.196-5.832,13.028-13.027,13.028H177.254c-7.196,0-13.028-5.832-13.028-13.028V108.91z"/>
</g>
<g>
</g>
<g>
</g>
<g>
</g>
<g>
</g>
<g>
</g>
<g>
</g>
<g>
</g>
<g>
</g>
<g>
</g>
<g>
</g>
<g>
</g>
<g>
</g>
<g>
</g>
<g>
</g>
<g>
</g>
</svg>
